<?xml version="1.0" encoding="UTF-8" standalone="no"?>
<svg
   width="32"
   height="32"
   viewBox="0 0 32 32"
   fill="none"
   version="1.1"
   id="svg41"
   sodipodi:docname="favicon.svg"
   inkscape:version="1.4.3 (0d15f75, 2025-12-25)"
   xmlns:inkscape="http://www.inkscape.org/namespaces/inkscape"
   xmlns:sodipodi="http://sodipodi.sourceforge.net/DTD/sodipodi-0.dtd"
   xmlns="http://www.w3.org/2000/svg"
   xmlns:svg="http://www.w3.org/2000/svg">
  <defs
     id="defs41" />
  <sodipodi:namedview
     id="namedview41"
     pagecolor="#ffffff"
     bordercolor="#000000"
     borderopacity="0.25"
     inkscape:showpageshadow="2"
     inkscape:pageopacity="0.0"
     inkscape:pagecheckerboard="0"
     inkscape:deskcolor="#d1d1d1"
     showgrid="false"
     inkscape:zoom="20.452555"
     inkscape:cx="19.630799"
     inkscape:cy="15.817095"
     inkscape:window-width="1920"
     inkscape:window-height="1009"
     inkscape:window-x="-8"
     inkscape:window-y="-8"
     inkscape:window-maximized="1"
     inkscape:current-layer="svg41" />
  <g
     id="g41"
     transform="matrix(1.2459943,0,0,1.3404214,-70.164431,5.7329625)">
    <path
       d="m 77.8526,8.06682 v 0.03466 c 0.0173,0.08664 0.0173,0.15596 0.0173,0.22528 0,0.84915 -0.6932,1.54233 -1.5423,1.54233 -0.8492,0 -1.5423,-0.69318 -1.5423,-1.54233 0,-0.57187 0.3119,-1.09176 0.8318,-1.36903 L 75.6517,6.9404 74.9239,1.46427 72.4978,6.42051 72.5324,6.45517 c 0.2773,0.25995 0.4333,0.60654 0.4333,0.98779 0,0.74516 -0.6066,1.36903 -1.3691,1.36903 -0.7451,0 -1.369,-0.60654 -1.369,-1.36903 0,-0.57188 0.3639,-1.09176 0.9011,-1.28239 L 71.1981,6.14324 69.1185,0.199219 67.0736,6.09125 67.0563,6.16057 67.1256,6.1779 c 0.5372,0.19063 0.9011,0.71051 0.9011,1.28238 0,0.74517 -0.6065,1.36904 -1.369,1.36904 -0.7451,0 -1.369,-0.60654 -1.369,-1.36904 0,-0.38125 0.1559,-0.72783 0.4332,-0.98778 L 65.7566,6.43784 63.3305,1.4816 62.6026,6.95773 62.6373,6.97506 c 0.5025,0.25994 0.8318,0.79716 0.8318,1.36903 0,0.84915 -0.6932,1.54233 -1.5423,1.54233 -0.8492,0 -1.5424,-0.69318 -1.5424,-1.54233 0,-0.06932 0,-0.13864 0.0174,-0.22529 V 8.08415 L 56.312,4.39296 60.679,11.6714 60.6964,11.706 H 77.61 l 4.3843,-7.31304 -4.0897,3.65653 z"
       fill="#e88c01"
       id="path7" />
    <path
       d="M 77.4193,12.5725 H 60.8697 c -0.3293,0 -0.5892,0.2599 -0.5892,0.5892 v 1.369 c 0,0.3293 0.2599,0.5892 0.5892,0.5892 h 16.5496 c 0.3293,0 0.5892,-0.2599 0.5892,-0.5892 v -1.369 c 0,-0.3293 -0.2599,-0.5892 -0.5892,-0.5892 z"
       fill="#e88c01"
       id="path8" />
    <path
       d="m 62.4648,14.3229 c -0.2773,0 -0.4853,-0.2253 -0.4853,-0.4853 0,-0.2772 0.2253,-0.4852 0.4853,-0.4852 0.2772,0 0.4852,0.2253 0.4852,0.4852 0,0.2773 -0.2253,0.4853 -0.4852,0.4853 z"
       fill="#254d18"
       id="path12" />
    <path
       d="m 62.4647,14.3924 c -0.312,0 -0.5546,-0.2427 -0.5546,-0.5546 0,-0.3119 0.2426,-0.5545 0.5546,-0.5545 0.3119,0 0.5545,0.2426 0.5545,0.5545 0,0.3119 -0.2426,0.5546 -0.5545,0.5546 z m 0,-0.9705 c -0.2253,0 -0.4159,0.1906 -0.4159,0.4159 0,0.2253 0.1906,0.4159 0.4159,0.4159 0.2252,0 0.4159,-0.1906 0.4159,-0.4159 0,-0.2253 -0.1907,-0.4159 -0.4159,-0.4159 z"
       fill="#254d18"
       id="path13" />
    <path
       d="m 65.8094,14.3229 c -0.2773,0 -0.4853,-0.2253 -0.4853,-0.4852 0,-0.2773 0.2253,-0.4853 0.4853,-0.4853 0.2772,0 0.4852,0.2253 0.4852,0.4853 0,0.2772 -0.2253,0.4852 -0.4852,0.4852 z"
       fill="#254d18"
       id="path14" />
    <path
       d="m 65.8095,14.3924 c -0.312,0 -0.5546,-0.2427 -0.5546,-0.5546 0,-0.3119 0.2426,-0.5545 0.5546,-0.5545 0.3119,0 0.5545,0.2426 0.5545,0.5545 0,0.3119 -0.2599,0.5546 -0.5545,0.5546 z m 0,-0.9705 c -0.2253,0 -0.4159,0.1906 -0.4159,0.4159 0,0.2253 0.1906,0.4159 0.4159,0.4159 0.2252,0 0.4159,-0.1906 0.4159,-0.4159 0,-0.2253 -0.1907,-0.4159 -0.4159,-0.4159 z"
       fill="#254d18"
       id="path15" />
    <path
       d="m 69.137,14.3229 c -0.2773,0 -0.4853,-0.2253 -0.4853,-0.4852 0,-0.2773 0.2253,-0.4853 0.4853,-0.4853 0.2772,0 0.4852,0.2253 0.4852,0.4853 0.0173,0.2772 -0.208,0.4852 -0.4852,0.4852 z"
       fill="#254d18"
       id="path16" />
    <path
       d="m 69.1368,14.3924 c -0.312,0 -0.5546,-0.2427 -0.5546,-0.5546 0,-0.3119 0.2426,-0.5545 0.5546,-0.5545 0.3119,0 0.5545,0.2426 0.5545,0.5545 0,0.3119 -0.2426,0.5546 -0.5545,0.5546 z m 0,-0.9705 c -0.2253,0 -0.4159,0.1906 -0.4159,0.4159 0,0.2253 0.1906,0.4159 0.4159,0.4159 0.2253,0 0.4159,-0.1906 0.4159,-0.4159 0.0173,-0.2253 -0.1733,-0.4159 -0.4159,-0.4159 z"
       fill="#254d18"
       id="path17" />
    <path
       d="m 72.481,14.3229 c -0.2772,0 -0.4852,-0.2253 -0.4852,-0.4852 0,-0.2773 0.2253,-0.4853 0.4852,-0.4853 0.26,0 0.4853,0.2253 0.4853,0.4853 0,0.2772 -0.208,0.4852 -0.4853,0.4852 z"
       fill="#254d18"
       id="path18" />
    <path
       d="m 72.4813,14.3924 c -0.3119,0 -0.5545,-0.2427 -0.5545,-0.5546 0,-0.3119 0.2426,-0.5545 0.5545,-0.5545 0.3119,0 0.5546,0.2426 0.5546,0.5545 0,0.3119 -0.2427,0.5546 -0.5546,0.5546 z m 0,-0.9705 c -0.2253,0 -0.4159,0.1906 -0.4159,0.4159 0,0.2253 0.1906,0.4159 0.4159,0.4159 0.2253,0 0.4159,-0.1906 0.4159,-0.4159 0.0173,-0.2253 -0.1733,-0.4159 -0.4159,-0.4159 z"
       fill="#254d18"
       id="path19" />
    <path
       d="m 75.8261,14.3229 c -0.2773,0 -0.4852,-0.2253 -0.4852,-0.4852 0,-0.2773 0.2253,-0.4853 0.4852,-0.4853 0.2773,0 0.4852,0.2253 0.4852,0.4853 0,0.2772 -0.2252,0.4852 -0.4852,0.4852 z"
       fill="#254d18"
       id="path20" />
    <path
       d="m 75.8261,14.3924 c -0.3119,0 -0.5545,-0.2427 -0.5545,-0.5546 0,-0.3119 0.2426,-0.5545 0.5545,-0.5545 0.3119,0 0.5545,0.2426 0.5545,0.5545 0,0.3119 -0.2426,0.5546 -0.5545,0.5546 z m 0,-0.9705 c -0.2253,0 -0.4159,0.1906 -0.4159,0.4159 0,0.2253 0.1906,0.4159 0.4159,0.4159 0.2253,0 0.4159,-0.1906 0.4159,-0.4159 0,-0.2253 -0.1906,-0.4159 -0.4159,-0.4159 z"
       fill="#254d18"
       id="path21" />
  </g>
</svg>
